<?xml version="1.0" encoding="UTF-8" standalone="no"?>
<svg
   id="Layer_1"
   data-name="Layer 1"
   viewBox="0 0 24 24"
   width="512"
   height="512"
   version="1.1"
   sodipodi:docname="grano-de-cafe(1).svg"
   inkscape:version="1.3.2 (091e20e, 2023-11-25)"
   xmlns:inkscape="http://www.inkscape.org/namespaces/inkscape"
   xmlns:sodipodi="http://sodipodi.sourceforge.net/DTD/sodipodi-0.dtd"
   xmlns="http://www.w3.org/2000/svg"
   xmlns:svg="http://www.w3.org/2000/svg">
  <defs
     id="defs1" />
  <sodipodi:namedview
     id="namedview1"
     pagecolor="#ffffff"
     bordercolor="#000000"
     borderopacity="0.25"
     inkscape:showpageshadow="2"
     inkscape:pageopacity="0.0"
     inkscape:pagecheckerboard="0"
     inkscape:deskcolor="#d1d1d1"
     inkscape:zoom="0.81835938"
     inkscape:cx="255.38902"
     inkscape:cy="255.38902"
     inkscape:window-width="1920"
     inkscape:window-height="999"
     inkscape:window-x="1920"
     inkscape:window-y="25"
     inkscape:window-maximized="1"
     inkscape:current-layer="Layer_1" />
  <path
     d="m19.628,19.628c-2.874,2.874-6.532,4.362-9.931,4.362-2.397,0-4.664-.744-6.438-2.26.119-.861,1.174-6.318,9.039-8.776,6.907-2.157,9.26-6.463,10.053-8.881,2.925,4.339,1.881,10.951-2.723,15.554Zm-7.926-8.582c7.864-2.457,8.919-7.914,9.039-8.776C16.451-1.397,9.272-.53,4.372,4.372-.232,8.976-1.276,15.588,1.649,19.926c.793-2.417,3.146-6.723,10.053-8.881Z"
     id="path1"
     style="fill:#2c7c6e;fill-opacity:1" />
</svg>
